# xmcd CD database file
#
# Track frame offsets:
#	150
#	17363
#	32401
#	46392
#	65921
#	81648
#	101057
#	118487
#	139050
#	158951
#	174676
#
# Disc length: 2595 seconds
#
# Revision: 0
# Processed by: cddbd v1.5.2PL0 Copyright (c) Steve Scherf et al.
# Submitted via: jetAudio 7
#
DISCID=9c0a210b
DTITLE=Farid Karimian - Kenaram Bash
DYEAR=1900
DGENRE=Pop
TTITLE0=Tamame Zendegim
TTITLE1=Kenaram Bash
TTITLE2=Negahe Montazer
TTITLE3=Gofte Basham
TTITLE4=Kheili Vaghteh
TTITLE5=Mehmane Naa Khandeh
TTITLE6=YadeGari
TTITLE7=Man Ba Toam
TTITLE8=Lahzehaye Akhar
TTITLE9=Fasle Akhar
TTITLE10=Mabood
EXTD=
EXTT0=
EXTT1=
EXTT2=
EXTT3=
EXTT4=
EXTT5=
EXTT6=
EXTT7=
EXTT8=
EXTT9=
EXTT10=
PLAYORDER=
